 <svg  version="1.0" xmlns="http://www.w3.org/2000/svg"  width="230.000000pt" height="195.000000pt" viewBox="0 0 230.000000 195.000000"  preserveAspectRatio="xMidYMid meet">  <g transform="translate(0.000000,195.000000) scale(0.100000,-0.100000)" fill="#000000" stroke="none"> <path d="M970 1841 c-193 -41 -354 -141 -482 -298 -114 -139 -171 -282 -189 -469 -11 -125 -7 -158 19 -150 9 3 53 8 97 11 133 10 121 -1 128 122 9 187 67 324 181 431 230 215 615 214 844 -3 75 -71 123 -144 158 -240 19 -53 24 -86 25 -179 l1 -114 51 -6 c29 -3 85 -9 126 -12 l74 -7 -6 109 c-7 135 -36 245 -90 349 -182 349 -563 535 -937 456z m209 -61 c25 0 28 -15 5 -24 -11 -4 -15 -14 -12 -31 6 -27 -1 -32 -20 -13 -9 9 -15 9 -24 0 -19 -19 -29 -14 -22 12 3 13 1 27 -5 30 -16 10 -13 26 4 26 9 0 18 7 22 16 6 16 7 16 18 0 7 -9 22 -16 34 -16z m-281 -92 c-12 -5 -25 -3 -34 6 -12 13 -11 17 8 30 21 15 23 14 34 -7 11 -19 10 -23 -8 -29z m516 37 c5 0 10 -10 11 -22 1 -18 -3 -22 -19 -18 -12 2 -26 4 -33 4 -8 1 -8 7 0 25 7 13 16 21 22 18 5 -4 14 -7 19 -7z m-705 -136 c-12 -23 -25 -24 -33 -3 -8 21 15 45 31 32 9 -7 10 -16 2 -29z m906 -1 c-4 -10 -14 -14 -26 -11 -22 6 -25 23 -7 41 16 16 41 -8 33 -30z m-1051 -124 c19 -7 20 -13 1 -38 -15 -19 -15 -19 -29 -1 -10 14 -11 22 -2 31 13 16 11 15 30 8z m1191 -40 c-16 -12 -20 -11 -31 3 -10 14 -9 19 4 29 12 9 19 8 31 -3 13 -14 13 -17 -4 -29z m136 -174 c23 0 25 -16 4 -24 -11 -4 -14 -13 -9 -32 6 -24 5 -25 -15 -15 -16 9 -26 9 -42 0 -20 -10 -21 -9 -16 9 3 12 -1 26 -9 33 -20 17 -17 29 7 29 13 0 23 8 27 22 l5 22 15 -22 c8 -12 23 -22 33 -22z m-1408 0 c22 0 30 -17 11 -24 -11 -4 -15 -14 -11 -32 4 -20 1 -24 -12 -18 -20 8 -32 8 -53 -1 -13 -5 -15 -2 -11 14 3 12 0 28 -7 36 -10 12 -9 16 6 22 11 3 23 13 28 21 8 13 10 13 21 -1 7 -10 19 -17 28 -17z"/> <path d="M980 1567 c-94 -29 -161 -67 -226 -132 -100 -99 -143 -204 -151 -368 l-6 -108 124 7 c68 3 126 8 128 10 2 2 -8 22 -23 45 -29 43 -109 89 -155 89 -22 0 -23 3 -19 50 15 150 173 326 337 374 70 21 228 21 306 1 162 -43 341 -230 362 -380 6 -45 5 -45 -24 -45 -37 0 -123 -43 -144 -73 -9 -12 -19 -32 -23 -44 -7 -22 -5 -23 51 -24 32 0 84 -4 115 -8 66 -8 68 -6 68 90 0 146 -54 275 -159 380 -142 142 -362 195 -561 136z"/> <path d="M978 1403 c-9 -10 -23 -32 -32 -49 -11 -23 -26 -34 -53 -41 l-38 -9 1 -54 c2 -101 19 -211 35 -221 7 -5 35 -9 60 -9 42 0 48 3 53 25 9 34 41 45 134 45 120 0 152 -8 152 -37 0 -16 8 -27 26 -33 30 -12 89 -4 102 14 10 12 23 125 26 216 l1 54 -39 11 c-26 8 -43 20 -53 41 -34 65 -32 64 -203 64 -137 0 -159 -2 -172 -17z m289 -39 c26 -7 39 -34 21 -46 -7 -4 -75 -8 -150 -8 -130 0 -138 1 -138 20 0 10 8 24 18 29 18 11 212 15 249 5z m-291 -125 c34 -9 44 -16 44 -32 0 -18 -4 -19 -46 -13 -56 7 -64 12 -64 37 0 22 6 23 66 8z m414 -8 c0 -20 -9 -25 -72 -36 -33 -5 -38 -3 -38 14 0 21 36 39 83 40 20 1 27 -4 27 -18z m-162 -35 c5 -26 -15 -36 -79 -36 -62 0 -96 17 -86 44 6 14 19 16 84 14 67 -3 78 -6 81 -22z"/> <path d="M1060 1005 c0 -25 1 -25 90 -25 89 0 90 0 90 25 0 25 -1 25 -90 25 -89 0 -90 0 -90 -25z"/> <path d="M745 915 c-197 -16 -435 -48 -592 -81 -39 -8 -39 -8 -13 -74 27 -68 25 -101 -10 -194 -16 -44 -28 -82 -25 -84 2 -2 77 7 167 22 309 49 605 76 848 76 164 0 530 -24 697 -45 125 -16 349 -52 371 -60 18 -6 16 4 -19 97 -34 93 -34 119 4 202 l25 53 -123 22 c-428 75 -915 99 -1330 66z m455 -108 l35 -47 3 50 c3 46 5 50 28 50 24 0 24 -1 24 -100 0 -97 -1 -100 -22 -100 -15 1 -35 17 -58 45 -19 25 -38 45 -42 45 -5 0 -8 -20 -8 -44 l0 -43 -55 -1 -55 0 0 69 c0 62 -2 69 -20 69 -18 0 -20 -7 -20 -70 0 -68 -1 -70 -25 -70 -24 0 -25 2 -25 70 0 56 -3 70 -15 70 -8 0 -15 -8 -15 -18 0 -10 -6 -27 -14 -38 -13 -18 -13 -24 4 -52 19 -31 19 -31 -2 -38 -18 -5 -29 2 -55 32 l-33 39 0 -36 c0 -36 -1 -36 -47 -42 -41 -5 -51 -2 -64 15 -19 24 -61 19 -88 -11 -9 -11 -35 -21 -58 -24 l-42 -5 -7 56 -7 56 -19 -49 c-35 -90 -48 -94 -79 -27 l-22 47 -8 -47 c-9 -60 -15 -68 -44 -68 -27 0 -28 -4 4 135 15 63 19 70 42 73 23 3 29 -3 46 -45 l20 -48 26 58 c21 47 30 57 51 57 29 0 32 -8 41 -104 l7 -68 37 93 c32 79 42 94 60 94 19 0 29 -13 54 -75 l32 -75 3 82 3 82 169 0 169 1 4 -28 c4 -24 4 -24 6 6 1 29 4 33 23 30 13 -2 38 -23 58 -51z m239 47 c47 -10 41 -49 -11 -67 -11 -4 -15 -2 -12 7 3 9 -5 11 -31 8 -52 -6 -43 -19 20 -27 57 -7 75 -22 75 -64 0 -38 -35 -61 -91 -61 -60 0 -89 13 -89 41 0 19 4 20 60 13 52 -6 60 -4 60 10 0 12 -10 16 -41 16 -54 0 -79 15 -79 46 0 28 17 65 34 76 14 9 63 10 105 2z m215 -108 c33 -99 36 -98 51 28 l7 58 36 -6 c21 -3 45 -6 55 -6 10 0 29 -11 42 -24 23 -23 25 -23 30 -6 5 16 13 18 38 13 50 -9 80 -26 96 -54 12 -22 12 -29 0 -55 -13 -25 -20 -29 -54 -29 -44 1 -55 -8 -55 -42 0 -24 -7 -27 -34 -17 -16 6 -16 24 0 103 l5 23 -28 -21 c-19 -16 -38 -21 -63 -19 -34 3 -35 2 -38 -35 -3 -30 -7 -37 -18 -33 -9 3 -31 6 -51 6 -26 0 -36 5 -40 20 -4 16 -14 20 -44 20 -22 0 -39 -4 -39 -10 0 -5 -11 -10 -25 -10 -14 0 -25 3 -25 7 0 4 19 47 42 96 56 117 70 116 112 -7z"/> <path d="M830 780 c0 -23 35 -28 43 -6 7 18 -1 26 -25 26 -11 0 -18 -7 -18 -20z"/> <path d="M667 741 c-3 -14 0 -21 9 -21 16 0 18 9 5 28 -6 10 -10 9 -14 -7z"/> <path d="M1752 758 c3 -7 17 -14 32 -16 20 -3 27 0 24 10 -3 7 -17 14 -32 16 -20 3 -27 0 -24 -10z"/> <path d="M1586 745 c-9 -23 -8 -25 9 -25 17 0 19 9 6 28 -7 11 -10 10 -15 -3z"/> <path d="M1920 729 c0 -15 5 -20 23 -17 27 4 26 19 -2 30 -17 6 -21 3 -21 -13z"/> <path d="M730 503 c-80 -8 -149 -18 -154 -23 -4 -5 9 -27 31 -50 l38 -42 125 50 c69 28 141 57 160 66 l35 15 -45 -1 c-25 0 -110 -7 -190 -15z"/> <path d="M975 482 c-44 -21 -126 -58 -182 -82 -57 -24 -103 -46 -103 -49 1 -9 103 -71 118 -71 11 0 50 20 322 162 142 75 143 78 25 78 -95 -1 -104 -3 -180 -38z"/> <path d="M1245 454 c-66 -35 -177 -94 -247 -130 -71 -37 -128 -70 -128 -75 0 -10 86 -35 150 -44 45 -6 49 -4 185 84 77 50 185 117 239 150 l99 59 -59 6 c-32 4 -72 8 -89 10 -22 3 -61 -13 -150 -60z"/> <path d="M1485 411 c-77 -47 -183 -114 -235 -148 l-95 -63 55 0 c160 0 379 107 485 235 20 26 36 47 34 49 -2 2 -26 6 -54 8 -49 6 -53 4 -190 -81z"/> <path d="M462 479 c-39 -12 -37 -16 40 -106 104 -122 273 -231 414 -268 126 -33 230 -39 354 -21 183 27 325 95 451 213 70 67 139 151 139 172 0 6 -15 11 -32 11 -28 0 -39 -8 -75 -54 -83 -108 -256 -218 -413 -261 -88 -25 -289 -25 -380 -2 -169 45 -334 155 -445 299 -18 23 -24 25 -53 17z"/> </g> </svg> 